<svg xmlns="http://www.w3.org/2000/svg" width="18.469" height="20.656" viewBox="0 0 18.469 20.656">
  <defs>
    <style>
      .cls-1 {
        fill: #6f6c7e;
        fill-rule: evenodd;
      }
    </style>
  </defs>
  <path id="Forma_1" data-name="Forma 1" class="cls-1" d="M72.256,541.3a0.926,0.926,0,0,0-.909-0.938H54.682a0.927,0.927,0,0,0-.909.938v18.765a0.927,0.927,0,0,0,.909.938H71.347a0.927,0.927,0,0,0,.909-0.938V541.3h0Zm-16.666.938H70.438v16.888H55.591V542.235Zm11.514,3.6H58.924a0.938,0.938,0,0,0,0,1.876h8.181A0.938,0.938,0,0,0,67.105,545.832Zm0,5H58.924a0.938,0.938,0,0,0,0,1.876h8.181A0.938,0.938,0,0,0,67.105,550.836Z" transform="translate(-53.781 -540.344)"/>
</svg>
