<svg xmlns="http://www.w3.org/2000/svg" width="24.031" height="22.531" viewBox="0 0 24.031 22.531">
  <defs>
    <style>
      .cls-1 {
        fill: #6f6c7e;
        fill-rule: evenodd;
      }
    </style>
  </defs>
  <path class="cls-1" d="M63,299.118a1.266,1.266,0,0,0,0,2.531A1.267,1.267,0,0,0,63,299.118Zm11.429,5.424a4.417,4.417,0,0,0,.01-4.375L66.7,286.435a4.21,4.21,0,0,0-7.4,0L51.56,300.177a4.453,4.453,0,0,0,.015,4.4,4.208,4.208,0,0,0,3.69,2.172h15.45A4.235,4.235,0,0,0,74.429,304.542Zm-1.679-.992a2.325,2.325,0,0,1-2.04,1.21H55.26a2.293,2.293,0,0,1-2.015-1.185,2.448,2.448,0,0,1-.005-2.415l7.745-13.743a2.3,2.3,0,0,1,4.04.005l7.74,13.743A2.416,2.416,0,0,1,72.749,303.55ZM62.693,291.169a1.375,1.375,0,0,0-.953,1.383c0.03,0.4.054,0.805,0.084,1.2,0.084,1.524.168,1.141,0.252,2.665a0.915,0.915,0,0,0,.924.892,0.935,0.935,0,0,0,.924-0.922c0-.314,0-0.6.03-0.922,0.054-.977.114-0.078,0.168-1.055,0.03-.633.084-1.266,0.114-1.9a1.6,1.6,0,0,0-.114-0.633A1.231,1.231,0,0,0,62.693,291.169Z" transform="translate(-51 -284.219)"/>
</svg>
