<svg xmlns="http://www.w3.org/2000/svg" width="23.031" height="23" viewBox="0 0 23.031 23">
  <defs>
    <style>
      .cls-1 {
        fill: #6f6c7e;
        fill-rule: evenodd;
      }
    </style>
  </defs>
  <path id="Forma_1" data-name="Forma 1" class="cls-1" d="M73.788,165.91l-1.646-1.643-9.056-9.042a0.824,0.824,0,0,0-1.164,0l-9.056,9.042-1.647,1.644a0.823,0.823,0,0,0,1.164,1.162l0.24-.241v10.346a0.823,0.823,0,0,0,.823.822H71.56a0.823,0.823,0,0,0,.823-0.822V166.832l0.241,0.241A0.823,0.823,0,0,0,73.788,165.91Zm-8.815,10.446h-4.94V169.78h4.94v6.576Zm5.763,0H66.62v-7.4a0.823,0.823,0,0,0-.823-0.823H59.21a0.823,0.823,0,0,0-.823.823v7.4H54.271V165.188l8.233-8.221,8.233,8.221v11.168Z" transform="translate(-51 -155)"/>
</svg>
