<svg xmlns="http://www.w3.org/2000/svg" width="23.094" height="23.468" viewBox="0 0 23.094 23.468">
  <defs>
    <style>
      .cls-1 {
        fill: #6f6c7e;
        fill-rule: evenodd;
      }
    </style>
  </defs>
  <path class="cls-1" d="M62.551,412.2A11.729,11.729,0,1,0,74.1,423.931,11.654,11.654,0,0,0,62.551,412.2Zm0,21.323a9.6,9.6,0,1,1,9.452-9.6A9.535,9.535,0,0,1,62.551,433.526Zm0-15.37a1.422,1.422,0,1,0,1.4,1.422A1.413,1.413,0,0,0,62.551,418.156Zm0,4.975A1.059,1.059,0,0,0,61.5,424.2v4.443a1.05,1.05,0,1,0,2.1,0V424.2A1.059,1.059,0,0,0,62.551,423.131Z" transform="translate(-51 -412.188)"/>
</svg>
