<svg xmlns="http://www.w3.org/2000/svg" width="18.469" height="24.406" viewBox="0 0 18.469 24.406">
  <defs>
    <style>
      .cls-1 {
        fill: #c8c6d1;
        fill-rule: evenodd;
      }
    </style>
  </defs>
  <path class="cls-1" d="M71.936,482.014l-4.328-4.343a1.076,1.076,0,0,0-1.53,0,1.094,1.094,0,0,0,0,1.54l2.482,2.484H56.235a1.09,1.09,0,0,0,0,2.179H68.559l-2.481,2.484a1.094,1.094,0,0,0,0,1.54,1.077,1.077,0,0,0,1.53,0l4.328-4.343A1.1,1.1,0,0,0,71.936,482.014Zm-2.17,13.232H57.442l2.482-2.484a1.1,1.1,0,0,0,0-1.541,1.077,1.077,0,0,0-1.53,0l-4.329,4.344a1.094,1.094,0,0,0,0,1.54l4.329,4.344a1.077,1.077,0,0,0,1.53,0,1.1,1.1,0,0,0,0-1.541l-2.482-2.484H69.766A1.089,1.089,0,0,0,69.766,495.246Z" transform="translate(-53.781 -477.375)"/>
</svg>
