<svg xmlns="http://www.w3.org/2000/svg" width="18.469" height="22.531" viewBox="0 0 18.469 22.531">
  <defs>
    <style>
      .cls-1 {
        fill: #6f6c7e;
        fill-rule: evenodd;
      }
    </style>
  </defs>
  <path id="Forma_1" data-name="Forma 1" class="cls-1" d="M54.193,371.333a0.9,0.9,0,0,0,.879.072l3.784-1.734,3.784,1.734a0.9,0.9,0,0,0,.751,0l3.783-1.734,3.783,1.734a0.9,0.9,0,0,0,.879-0.072,0.96,0.96,0,0,0,.421-0.8V349.923a0.939,0.939,0,0,0-.924-0.953H54.7a0.939,0.939,0,0,0-.924.953v20.611A0.96,0.96,0,0,0,54.193,371.333Zm1.428-20.457H70.408v18.192l-2.859-1.31a0.9,0.9,0,0,0-.751,0l-3.784,1.733-3.784-1.733a0.9,0.9,0,0,0-.751,0l-2.86,1.31V350.876Zm9.7,10.573h2.31a0.953,0.953,0,0,0,0-1.906h-2.31A0.953,0.953,0,0,0,65.325,361.449Zm-6.931,0h3.7a0.953,0.953,0,0,0,0-1.906h-3.7A0.953,0.953,0,0,0,58.394,361.449Zm0-4.288h9.242a0.953,0.953,0,0,0,0-1.906H58.394A0.953,0.953,0,0,0,58.394,357.161Z" transform="translate(-53.781 -348.969)"/>
</svg>
